<?xml version="1.0" encoding="UTF-8" standalone="no"?>
<svg
   version="1.1"
   viewBox="0 0 492 491.89844"
   xml:space="preserve"
   id="svg8"
   sodipodi:docname="Instagram.svg"
   width="492"
   height="491.89844"
   xmlns:inkscape="http://www.inkscape.org/namespaces/inkscape"
   xmlns:sodipodi="http://sodipodi.sourceforge.net/DTD/sodipodi-0.dtd"
   xmlns="http://www.w3.org/2000/svg"
   xmlns:svg="http://www.w3.org/2000/svg"><defs
     id="defs8" /><sodipodi:namedview
     id="namedview8"
     pagecolor="#ffffff"
     bordercolor="#000000"
     borderopacity="0.25"
     inkscape:showpageshadow="2"
     inkscape:pageopacity="0.0"
     inkscape:pagecheckerboard="0"
     inkscape:deskcolor="#d1d1d1"><inkscape:page
       x="0"
       y="-5.2352174e-08"
       width="492"
       height="491.89844"
       id="page1"
       margin="0"
       bleed="0" /></sodipodi:namedview><style
     type="text/css"
     id="style1">
	.st0{fill:url(#SVGID_1_);}
	.st1{fill:url(#SVGID_2_);}
	.st2{fill:#654C9F;}
</style><g
     id="Symbol"
     transform="translate(-498.56593,-28.69599)"><g
       id="g8"><radialGradient
         cx="56.350101"
         cy="19.217899"
         gradientTransform="matrix(0.9986,-0.05233596,0.04448556,0.8488,-36.9742,443.8014)"
         gradientUnits="userSpaceOnUse"
         id="SVGID_1_"
         r="711.33502"><stop
           offset="0"
           style="stop-color:#FED576"
           id="stop1" /><stop
           offset="0.2634"
           style="stop-color:#F47133"
           id="stop2" /><stop
           offset="0.6091"
           style="stop-color:#BC3081"
           id="stop3" /><stop
           offset="1"
           style="stop-color:#4C63D2"
           id="stop4" /></radialGradient><path
         id="rect10"
         style="fill:#000000;fill-opacity:1;stroke:#000000;stroke-width:0;stroke-linecap:round;stroke-linejoin:round"
         d="m 28.69599,-744.66553 c 0,66.79986 0.300002,75.19849 1.5,101.39843 1.099998,26.29996 5.29845,44.20082 11.398438,59.80078 6.299986,16.19998 14.700418,29.89965 28.40039,43.59961 13.599974,13.69998 27.400019,22.10041 43.500002,28.40039 15.59996,6.1 33.50123,10.20041 59.70117,11.40039 26.19994,1.2 34.59856,1.5 101.39844,1.5 66.79986,0 75.20043,-0.3 101.40039,-1.5 26.19994,-1.19998 44.10121,-5.40039 59.70117,-11.40039 16.19996,-6.29998 29.89963,-14.70041 43.59961,-28.40039 13.69998,-13.69996 22.10041,-27.39963 28.40039,-43.59961 6.09998,-15.59996 10.19844,-33.49927 11.39844,-59.69921 1.2,-26.19996 1.5,-34.60052 1.5,-101.4004 0,-66.79986 -0.3,-75.20043 -1.5,-101.40039 -1.2,-26.19994 -5.39846,-44.09925 -11.39844,-59.69921 -6.29998,-16.19998 -14.70041,-29.90159 -28.40039,-43.60157 -13.69998,-13.69996 -27.39965,-22.09845 -43.59961,-28.39843 -15.59996,-6.1 -33.50123,-10.2004 -59.70117,-11.4004 -26.19996,-1.19998 -34.60053,-1.5 -101.40039,-1.5 -66.79988,0 -75.1985,0.30002 -101.39844,1.5 -26.19994,1.2 -44.10121,5.4004 -59.70117,11.4004 -16.099983,6.29998 -29.900028,14.69886 -43.500002,28.29882 -13.699972,13.69998 -22.100404,27.39965 -28.40039,43.59961 -6.099988,15.59998 -10.198441,33.50123 -11.398438,59.70117 -1.199998,26.19996 -1.5,34.60052 -1.5,101.4004 z m 85.19922,-131.30079 a 29.5,29.5 0 0 1 29.5,-29.5 29.5,29.5 0 0 1 29.5,29.5 29.5,29.5 0 0 1 -29.5,29.5 29.5,29.5 0 0 1 -29.5,-29.5 z m 34.5,131.40039 c 0,-69.79972 56.60106,-126.30078 126.30078,-126.30078 69.69972,0 126.29883,56.60106 126.29883,126.30078 0,69.69972 -56.49911,126.29883 -126.29883,126.29883 -69.79972,0 -126.30078,-56.49911 -126.30078,-126.29883 z m 44.30078,0 c 0,45.29984 36.7002,82 82,82 45.2998,0 82,-36.70016 82,-82 0,-45.2998 -36.7002,-82 -82,-82 -45.2998,0 -82,36.7002 -82,82 z"
         transform="rotate(90)" /><path
         class="st0"
         d="m 65.441316,41.595209 c -16.2,6.3 -29.9,14.7 -43.6,28.4 -13.7000004,13.6 -22.10000036,27.4 -28.4000004,43.500011 -6.0999996,15.6 -10.1999996,33.5 -11.3999996,59.7 -1.2,26.2 -1.5,34.6 -1.5,101.4 0,66.8 0.3,75.2 1.5,101.4 1.2,26.2 5.4,44.1 11.3999996,59.7 6.30000004,16.2 14.7,29.9 28.4000004,43.6 13.7,13.7 27.4,22.1 43.6,28.4 15.6,6.1 33.5,10.2 59.700004,11.4 26.2,1.2 34.6,1.5 101.4,1.5 66.8,0 75.2,-0.3 101.4,-1.5 26.2,-1.2 44.1,-5.4 59.7,-11.4 16.2,-6.3 29.90002,-14.7 43.60002,-28.4 13.7,-13.7 22.1,-27.4 28.4,-43.6 6.1,-15.6 10.2,-33.5 11.4,-59.7 1.2,-26.2 1.5,-34.6 1.5,-101.4 0,-66.8 -0.3,-75.2 -1.5,-101.4 -1.2,-26.2 -5.4,-44.1 -11.4,-59.7 -6.3,-16.100011 -14.7,-29.900011 -28.3,-43.500011 -13.7,-13.7 -27.40002,-22.1 -43.60002,-28.4 -15.6,-6.1 -33.5,-10.2 -59.7,-11.4 -26.2,-1.2 -34.6,-1.5 -101.4,-1.5 -66.8,0 -75.2,0.3 -101.4,1.5 -26.300004,1.1 -44.200004,5.3 -59.800004,11.4 z m 260.500004,32.8 c 24,1.1 37,5.1 45.7,8.5 11.5,4.5 19.7,9.8 28.3,18.400011 8.6,8.6 13.9,16.8 18.40002,28.3 3.4,8.7 7.4,21.7 8.5,45.7 1.2,25.9 1.4,33.7 1.4,99.4 0,65.7 -0.3,73.5 -1.4,99.4 -1.1,24 -5.1,37 -8.5,45.7 -4.50002,11.5 -9.80002,19.7 -18.40002,28.3 -8.6,8.6 -16.8,13.9 -28.3,18.4 -8.7,3.4 -21.7,7.4 -45.7,8.5 -25.9,1.2 -33.7,1.4 -99.4,1.4 -65.7,0 -73.5,-0.3 -99.4,-1.4 -24,-1.1 -37.000004,-5.1 -45.700004,-8.5 -11.5,-4.5 -19.7,-9.8 -28.3,-18.4 -8.6,-8.6 -13.9,-16.8 -18.4,-28.3 -3.4,-8.7 -7.4,-21.7 -8.5,-45.7 -1.2,-25.9 -1.4,-33.7 -1.4,-99.4 0,-65.7 0.3,-73.5 1.4,-99.4 1.1,-24 5.1,-37 8.5,-45.7 4.5,-11.5 9.8,-19.7 18.4,-28.3 8.6,-8.600011 16.8,-13.900011 28.3,-18.400011 8.7,-3.4 21.700004,-7.4 45.700004,-8.5 25.9,-1.2 33.7,-1.4 99.4,-1.4 65.7,0 73.5,0.2 99.4,1.4 z"
         id="path4"
         style="fill:#000000;fill-opacity:1" /><radialGradient
         cx="154.0732"
         cy="134.55009"
         gradientTransform="matrix(0.9986,-0.05233596,0.04448556,0.8488,-24.3617,253.2946)"
         gradientUnits="userSpaceOnUse"
         id="SVGID_2_"
         r="365.28009"><stop
           offset="0"
           style="stop-color:#FED576"
           id="stop5" /><stop
           offset="0.2634"
           style="stop-color:#F47133"
           id="stop6" /><stop
           offset="0.6091"
           style="stop-color:#BC3081"
           id="stop7" /><stop
           offset="1"
           style="stop-color:#4C63D2"
           id="stop8" /></radialGradient><path
         class="st1"
         d="m 100.24132,274.69522 c 0,69.8 56.6,126.3 126.3,126.3 69.7,0 126.3,-56.6 126.3,-126.3 0,-69.7 -56.5,-126.3 -126.3,-126.3 -69.8,0 -126.3,56.5 -126.3,126.3 z m 208.3,0 c 0,45.3 -36.7,82 -82,82 -45.3,0 -82,-36.7 -82,-82 0,-45.3 36.7,-82 82,-82 45.3,0 82,36.7 82,82 z"
         id="path8"
         style="fill:#000000;fill-opacity:1" /><circle
         class="st2"
         cx="357.94135"
         cy="143.3952"
         r="29.5"
         id="circle8"
         style="fill:#000000;fill-opacity:1" /></g></g></svg>
